<?xml version="1.0" encoding="UTF-8" standalone="no"?>
<!DOCTYPE svg PUBLIC "-//W3C//DTD SVG 1.1//EN" "http://www.w3.org/Graphics/SVG/1.1/DTD/svg11.dtd">
<svg width="100%" height="100%" viewBox="0 0 678 116" version="1.1" xmlns="http://www.w3.org/2000/svg" xmlns:xlink="http://www.w3.org/1999/xlink" xml:space="preserve" xmlns:serif="http://www.serif.com/" style="fill-rule:evenodd;clip-rule:evenodd;stroke-linecap:round;stroke-linejoin:round;stroke-miterlimit:1.5;">
    <g transform="matrix(1,0,0,1,-2393.82,-1211.47)">
        <path d="M2772.72,1323.15L2398.18,1315.3L2398.07,1232.94C2398.07,1232.94 2649.65,1188.93 2771.53,1241.64L2772.72,1323.15Z" style="fill:rgb(255,134,239);stroke:black;stroke-width:8.5px;"/>
    </g>
    <g transform="matrix(1,0,0,1,-2393.82,-1198.47)">
        <path d="M2904.26,1274.6L2905.29,1258.52L3067.37,1257.62L3061.89,1299.32L2943.99,1303.97L2904.26,1274.6Z" style="fill:white;stroke:black;stroke-width:8.5px;"/>
    </g>
    <g transform="matrix(1,0,0,1,-2393.82,-1198.47)">
        <path d="M2826.66,1309.8L2828.12,1278.73L2992.49,1280.77L2997.56,1307.98L2826.66,1309.8Z" style="fill:white;stroke:black;stroke-width:8.5px;"/>
    </g>
    <g transform="matrix(1,0,0,1,-2393.82,-1211.47)">
        <path d="M2517.01,1238.76L2517.31,1238.8L2517.61,1238.86L2517.9,1238.95L2518.18,1239.05L2518.46,1239.17L2518.73,1239.32L2518.99,1239.48L2519.23,1239.66L2519.46,1239.86L2519.68,1240.07L2519.88,1240.3L2520.06,1240.54L2520.23,1240.79L2520.37,1241.06L2520.5,1241.33L2520.61,1241.62L2520.7,1241.91L2520.76,1242.2L2520.81,1242.5L2520.83,1242.81L2520.84,1243.11L2520.82,1243.41L2520.78,1243.71L2520.71,1244.01L2520.63,1244.3L2520.53,1244.59L2520.4,1244.86L2520.26,1245.13L2520.1,1245.39L2519.92,1245.63L2519.72,1245.86L2519.51,1246.08L2519.28,1246.28L2519.04,1246.46L2518.78,1246.63L2518.52,1246.78L2518.24,1246.9L2517.96,1247.01L2517.67,1247.1L2517.37,1247.17L2517.07,1247.21L2516.77,1247.24L2515.91,1247.27L2515.04,1247.31L2514.18,1247.35L2513.32,1247.39L2512.46,1247.43L2511.59,1247.47L2510.73,1247.51L2509.87,1247.55L2509.01,1247.59L2508.15,1247.64L2507.28,1247.68L2506.42,1247.72L2505.56,1247.77L2504.7,1247.82L2503.84,1247.86L2503.41,1247.88L2502.98,1247.91L2502.55,1247.93L2502.12,1247.96L2501.69,1247.98L2501.26,1248.01L2500.83,1248.03L2500.39,1248.06L2499.96,1248.08L2499.53,1248.11L2499.1,1248.13L2498.67,1248.16L2498.24,1248.18L2497.81,1248.21L2497.38,1248.23L2496.95,1248.26L2496.52,1248.29L2496.09,1248.31L2495.66,1248.34L2495.23,1248.37L2494.8,1248.39L2494.37,1248.42L2493.94,1248.45L2493.51,1248.48L2493.08,1248.51L2492.65,1248.53L2492.22,1248.56L2491.79,1248.59L2491.36,1248.62L2490.93,1248.65L2490.5,1248.68L2490.07,1248.71L2489.64,1248.74L2489.21,1248.77L2488.78,1248.8L2488.35,1248.83L2487.92,1248.86L2487.49,1248.89L2487.07,1248.92L2486.64,1248.95L2486.21,1248.98L2485.78,1249.01L2485.35,1249.05L2484.92,1249.08L2484.49,1249.11L2484.06,1249.14L2483.63,1249.17L2483.2,1249.21L2482.77,1249.24L2482.34,1249.27L2481.91,1249.31L2481.48,1249.34L2481.05,1249.38L2480.62,1249.41L2480.2,1249.44L2479.77,1249.48L2479.34,1249.51L2478.91,1249.55L2478.48,1249.58L2478.05,1249.62L2477.62,1249.66L2477.19,1249.69L2476.76,1249.73L2476.34,1249.77L2475.91,1249.8L2475.48,1249.84L2475.05,1249.88L2474.62,1249.91L2474.19,1249.95L2473.76,1249.99L2473.34,1250.03L2472.91,1250.07L2472.48,1250.11L2472.05,1250.14L2471.62,1250.18L2471.19,1250.22L2470.76,1250.26L2470.34,1250.3L2469.91,1250.34L2469.48,1250.38L2469.05,1250.42L2468.62,1250.46L2468.2,1250.51L2467.77,1250.55L2467.34,1250.59L2466.91,1250.63L2466.48,1250.67L2466.05,1250.71L2465.62,1250.76L2465.2,1250.8L2464.77,1250.85L2464.34,1250.89L2463.91,1250.93L2463.49,1250.98L2463.06,1251.02L2462.63,1251.07L2462.2,1251.11L2461.77,1251.15L2461.47,1251.18L2461.17,1251.17L2460.86,1251.15L2460.56,1251.11L2460.27,1251.04L2459.98,1250.96L2459.69,1250.85L2459.42,1250.73L2459.15,1250.58L2458.9,1250.41L2458.65,1250.23L2458.43,1250.03L2458.21,1249.82L2458.01,1249.59L2457.83,1249.35L2457.67,1249.09L2457.52,1248.82L2457.4,1248.55L2457.29,1248.26L2457.21,1247.97L2457.14,1247.67L2457.1,1247.37L2457.08,1247.07L2457.08,1246.77L2457.1,1246.46L2457.15,1246.16L2457.21,1245.87L2457.3,1245.58L2457.4,1245.29L2457.53,1245.02L2457.68,1244.75L2457.84,1244.5L2458.02,1244.25L2458.22,1244.03L2458.44,1243.81L2458.67,1243.61L2458.91,1243.43L2459.17,1243.27L2459.43,1243.12L2459.71,1243L2459.99,1242.89L2460.28,1242.81L2460.58,1242.74L2460.88,1242.7L2461.31,1242.66L2461.75,1242.61L2462.18,1242.57L2462.61,1242.52L2463.05,1242.48L2463.48,1242.43L2463.91,1242.39L2464.35,1242.34L2464.78,1242.3L2465.21,1242.26L2465.64,1242.21L2466.08,1242.17L2466.51,1242.13L2466.94,1242.09L2467.38,1242.05L2467.81,1242L2468.24,1241.96L2468.68,1241.92L2469.11,1241.88L2469.54,1241.84L2469.98,1241.8L2470.41,1241.76L2470.84,1241.72L2471.28,1241.68L2471.71,1241.64L2472.14,1241.6L2472.58,1241.56L2473.01,1241.52L2473.44,1241.48L2473.88,1241.45L2474.31,1241.41L2474.74,1241.37L2475.18,1241.33L2475.61,1241.3L2476.05,1241.26L2476.48,1241.22L2476.91,1241.19L2477.35,1241.15L2477.78,1241.11L2478.21,1241.08L2478.65,1241.04L2479.08,1241.01L2479.51,1240.97L2479.95,1240.94L2480.38,1240.9L2480.81,1240.87L2481.25,1240.83L2481.68,1240.8L2482.12,1240.77L2482.55,1240.73L2482.98,1240.7L2483.42,1240.67L2483.85,1240.63L2484.28,1240.6L2484.72,1240.57L2485.15,1240.54L2485.58,1240.51L2486.02,1240.47L2486.45,1240.44L2486.89,1240.41L2487.32,1240.38L2487.75,1240.35L2488.19,1240.32L2488.62,1240.29L2489.05,1240.26L2489.49,1240.23L2489.92,1240.2L2490.36,1240.17L2490.79,1240.14L2491.22,1240.11L2491.66,1240.08L2492.09,1240.05L2492.53,1240.02L2492.96,1240L2493.39,1239.97L2493.83,1239.94L2494.26,1239.91L2494.7,1239.88L2495.13,1239.86L2495.56,1239.83L2496,1239.8L2496.43,1239.78L2496.87,1239.75L2497.3,1239.72L2497.73,1239.7L2498.17,1239.67L2498.6,1239.64L2499.04,1239.62L2499.47,1239.59L2499.9,1239.57L2500.34,1239.54L2500.77,1239.52L2501.21,1239.49L2501.64,1239.47L2502.08,1239.45L2502.51,1239.42L2502.94,1239.4L2503.38,1239.37L2504.24,1239.33L2505.11,1239.28L2505.98,1239.24L2506.85,1239.19L2507.72,1239.15L2508.59,1239.1L2509.46,1239.06L2510.33,1239.02L2511.19,1238.98L2512.06,1238.94L2512.93,1238.9L2513.8,1238.86L2514.67,1238.82L2515.54,1238.78L2516.4,1238.74L2516.71,1238.74L2517.01,1238.76Z"/>
    </g>
    <g transform="matrix(1,0,0,1,-2393.82,-1211.47)">
        <path d="M2543.35,1254.57L2543.56,1254.59L2543.77,1254.62L2543.98,1254.66L2544.18,1254.71L2544.39,1254.77L2544.59,1254.84L2544.78,1254.92L2544.97,1255.01L2545.16,1255.11L2545.34,1255.22L2545.52,1255.34L2545.69,1255.47L2545.85,1255.6L2546.01,1255.75L2546.16,1255.9L2546.3,1256.05L2546.43,1256.22L2546.56,1256.39L2546.67,1256.57L2546.78,1256.75L2546.88,1256.94L2546.97,1257.13L2547.05,1257.33L2547.12,1257.53L2547.17,1257.73L2547.22,1257.94L2547.26,1258.15L2547.29,1258.36L2547.31,1258.57L2547.31,1258.78L2547.31,1258.99L2547.3,1259.2L2547.27,1259.41L2547.24,1259.62L2547.19,1259.83L2547.13,1260.03L2547.07,1260.23L2546.99,1260.43L2546.91,1260.63L2546.81,1260.82L2546.71,1261L2546.59,1261.18L2546.47,1261.35L2546.34,1261.52L2546.2,1261.68L2546.05,1261.83L2545.9,1261.98L2545.74,1262.11L2545.57,1262.24L2545.39,1262.36L2545.22,1262.48L2545.03,1262.58L2544.84,1262.67L2544.64,1262.76L2544.45,1262.83L2544.24,1262.89L2544.04,1262.95L2543.83,1262.99L2543.62,1263.02L2543.41,1263.05L2543.2,1263.06L2542.78,1263.07L2542.37,1263.08L2541.95,1263.1L2541.54,1263.11L2541.12,1263.12L2540.7,1263.13L2540.29,1263.15L2539.87,1263.16L2539.46,1263.17L2539.04,1263.18L2538.62,1263.19L2538.21,1263.2L2537.79,1263.21L2537.38,1263.22L2536.96,1263.24L2536.55,1263.25L2535.72,1263.27L2534.88,1263.28L2534.05,1263.3L2533.22,1263.32L2532.39,1263.34L2531.56,1263.35L2530.73,1263.37L2529.9,1263.39L2529.07,1263.4L2528.24,1263.42L2527.41,1263.43L2526.59,1263.45L2524.93,1263.48L2523.27,1263.51L2521.62,1263.53L2519.96,1263.56L2519.14,1263.58L2518.31,1263.59L2517.48,1263.61L2516.66,1263.62L2516.44,1263.62L2516.23,1263.61L2516.02,1263.59L2515.81,1263.56L2515.61,1263.51L2515.4,1263.46L2515.2,1263.4L2515,1263.32L2514.8,1263.24L2514.61,1263.14L2514.43,1263.04L2514.25,1262.93L2514.07,1262.81L2513.91,1262.68L2513.74,1262.55L2513.59,1262.4L2513.44,1262.25L2513.3,1262.09L2513.17,1261.92L2513.05,1261.75L2512.93,1261.57L2512.83,1261.38L2512.74,1261.2L2512.65,1261L2512.57,1260.81L2512.51,1260.6L2512.45,1260.4L2512.41,1260.19L2512.37,1259.98L2512.34,1259.77L2512.33,1259.56L2512.33,1259.35L2512.33,1259.14L2512.35,1258.93L2512.38,1258.72L2512.41,1258.51L2512.46,1258.3L2512.52,1258.1L2512.59,1257.9L2512.67,1257.7L2512.76,1257.51L2512.86,1257.32L2512.96,1257.14L2513.08,1256.96L2513.2,1256.79L2513.34,1256.62L2513.48,1256.47L2513.63,1256.32L2513.78,1256.17L2513.95,1256.04L2514.12,1255.91L2514.29,1255.79L2514.47,1255.68L2514.66,1255.58L2514.85,1255.49L2515.05,1255.41L2515.25,1255.34L2515.45,1255.28L2515.66,1255.23L2515.86,1255.18L2516.07,1255.15L2516.28,1255.13L2516.49,1255.13L2517.32,1255.11L2518.15,1255.1L2518.98,1255.08L2519.81,1255.07L2521.47,1255.04L2523.12,1255.01L2524.78,1254.98L2526.43,1254.95L2527.26,1254.93L2528.09,1254.92L2528.91,1254.9L2529.74,1254.89L2530.57,1254.87L2531.39,1254.86L2532.22,1254.84L2533.04,1254.82L2533.87,1254.8L2534.69,1254.79L2535.52,1254.77L2536.34,1254.75L2536.75,1254.74L2537.16,1254.73L2537.58,1254.72L2537.99,1254.71L2538.4,1254.69L2538.81,1254.68L2539.22,1254.67L2539.63,1254.66L2540.05,1254.65L2540.46,1254.64L2540.87,1254.63L2541.28,1254.61L2541.69,1254.6L2542.1,1254.59L2542.51,1254.58L2542.93,1254.56L2543.14,1254.56L2543.35,1254.57Z"/>
    </g>
    <g transform="matrix(1,0,0,1,-2393.82,-1211.47)">
        <path d="M2563.8,1236.79L2564.6,1236.82L2565.39,1236.84L2566.19,1236.87L2566.99,1236.89L2567.78,1236.92L2568.58,1236.94L2569.38,1236.97L2570.18,1236.99L2570.97,1237.02L2571.77,1237.04L2572.57,1237.06L2573.36,1237.09L2574.16,1237.11L2574.96,1237.13L2575.75,1237.15L2576.55,1237.17L2577.35,1237.19L2578.14,1237.21L2578.94,1237.23L2579.74,1237.25L2580.54,1237.27L2582.13,1237.31L2582.93,1237.33L2583.73,1237.34L2584.52,1237.36L2585.32,1237.38L2586.12,1237.39L2586.91,1237.41L2587.71,1237.43L2588.51,1237.44L2589.31,1237.46L2590.11,1237.48L2591.7,1237.51L2592.5,1237.52L2593.3,1237.53L2594.09,1237.55L2594.89,1237.56L2596.49,1237.59L2597.28,1237.6L2598.08,1237.61L2599.68,1237.64L2600.48,1237.65L2601.27,1237.66L2603.67,1237.69L2607.66,1237.74L2608.46,1237.75L2609.26,1237.76L2610.05,1237.77L2610.85,1237.78L2613.25,1237.8L2614.05,1237.81L2614.34,1237.82L2614.62,1237.86L2614.91,1237.91L2615.19,1237.98L2615.47,1238.07L2615.74,1238.18L2616,1238.31L2616.25,1238.45L2616.49,1238.61L2616.72,1238.79L2616.93,1238.98L2617.14,1239.19L2617.33,1239.41L2617.5,1239.64L2617.66,1239.89L2617.8,1240.14L2617.92,1240.41L2618.02,1240.68L2618.11,1240.95L2618.17,1241.24L2618.22,1241.52L2618.25,1241.81L2618.25,1242.1L2618.24,1242.39L2618.21,1242.68L2618.16,1242.97L2618.08,1243.25L2617.99,1243.52L2617.89,1243.79L2617.76,1244.05L2617.61,1244.31L2617.45,1244.55L2617.27,1244.78L2617.08,1244.99L2616.87,1245.19L2616.65,1245.38L2616.42,1245.56L2616.18,1245.71L2615.92,1245.85L2615.66,1245.98L2615.39,1246.08L2615.11,1246.16L2614.83,1246.23L2614.54,1246.28L2614.25,1246.3L2613.96,1246.31L2613.16,1246.3L2612.36,1246.3L2611.56,1246.29L2610.76,1246.28L2609.96,1246.27L2609.16,1246.26L2608.36,1246.25L2607.56,1246.24L2606.76,1246.23L2605.96,1246.22L2605.16,1246.21L2604.36,1246.2L2603.55,1246.19L2602.76,1246.18L2601.95,1246.17L2601.15,1246.16L2600.35,1246.15L2599.55,1246.14L2598.75,1246.12L2597.95,1246.11L2597.15,1246.1L2596.35,1246.09L2595.55,1246.07L2594.75,1246.06L2593.95,1246.05L2593.15,1246.03L2592.35,1246.02L2591.55,1246L2590.74,1245.99L2589.94,1245.97L2589.14,1245.96L2588.34,1245.94L2587.54,1245.93L2586.74,1245.91L2585.94,1245.89L2585.14,1245.88L2584.34,1245.86L2583.54,1245.84L2582.74,1245.82L2581.94,1245.81L2581.13,1245.79L2580.33,1245.77L2579.53,1245.75L2578.73,1245.73L2577.93,1245.71L2577.13,1245.69L2576.33,1245.67L2575.53,1245.65L2574.73,1245.62L2573.93,1245.6L2573.12,1245.58L2572.32,1245.56L2571.52,1245.54L2570.72,1245.51L2569.92,1245.49L2569.12,1245.46L2568.32,1245.44L2567.52,1245.41L2566.72,1245.39L2565.92,1245.37L2565.11,1245.34L2564.31,1245.31L2563.51,1245.29L2562.71,1245.26L2562.42,1245.24L2562.14,1245.2L2561.85,1245.14L2561.57,1245.06L2561.3,1244.96L2561.03,1244.85L2560.77,1244.71L2560.53,1244.56L2560.29,1244.4L2560.06,1244.21L2559.85,1244.02L2559.65,1243.8L2559.47,1243.58L2559.3,1243.34L2559.15,1243.09L2559.02,1242.84L2558.9,1242.57L2558.81,1242.3L2558.73,1242.02L2558.67,1241.73L2558.63,1241.44L2558.61,1241.15L2558.61,1240.87L2558.63,1240.58L2558.67,1240.29L2558.73,1240L2558.81,1239.73L2558.9,1239.45L2559.02,1239.18L2559.15,1238.93L2559.3,1238.68L2559.47,1238.44L2559.65,1238.22L2559.85,1238.01L2560.06,1237.81L2560.29,1237.62L2560.53,1237.46L2560.77,1237.31L2561.03,1237.17L2561.3,1237.06L2561.57,1236.96L2561.85,1236.88L2562.14,1236.82L2562.42,1236.78L2562.71,1236.76L2563,1236.76L2563.8,1236.79Z"/>
    </g>
</svg>
